<mxfile host="app.diagrams.net" modified="2023-12-01T18:47:55.082Z" agent="Mozilla/5.0 (Windows NT 10.0; Win64; x64) AppleWebKit/537.36 (KHTML, like Gecko) Chrome/119.0.0.0 Safari/537.36" etag="3F71WMJ3qcp8Pi3e2aJr" version="22.1.5" type="device">
  <diagram name="Page-1" id="P5TANpdgjcrlWcNh6cr1">
    <mxGraphModel dx="2049" dy="652" grid="1" gridSize="10" guides="1" tooltips="1" connect="1" arrows="1" fold="1" page="1" pageScale="1" pageWidth="827" pageHeight="1169" math="0" shadow="0">
      <root>
        <mxCell id="0" />
        <mxCell id="1" parent="0" />
        <mxCell id="rhCW5o9TBGKpallqe4Qa-27" value="" style="ellipse;whiteSpace=wrap;html=1;aspect=fixed;" parent="1" vertex="1">
          <mxGeometry x="250" y="217" width="80" height="80" as="geometry" />
        </mxCell>
        <mxCell id="rhCW5o9TBGKpallqe4Qa-28" value="" style="ellipse;whiteSpace=wrap;html=1;aspect=fixed;" parent="1" vertex="1">
          <mxGeometry x="500" y="217" width="80" height="80" as="geometry" />
        </mxCell>
        <mxCell id="rhCW5o9TBGKpallqe4Qa-29" value="" style="endArrow=classic;html=1;exitX=0.713;exitY=0.075;exitDx=0;exitDy=0;exitPerimeter=0;entryX=0.3;entryY=0.013;entryDx=0;entryDy=0;entryPerimeter=0;curved=1;" parent="1" edge="1">
          <mxGeometry width="50" height="50" relative="1" as="geometry">
            <mxPoint x="314.47999999999996" y="226" as="sourcePoint" />
            <mxPoint x="531.44" y="221.03999999999996" as="targetPoint" />
            <Array as="points">
              <mxPoint x="427.44" y="160" />
            </Array>
          </mxGeometry>
        </mxCell>
        <mxCell id="rhCW5o9TBGKpallqe4Qa-30" value="" style="endArrow=classic;html=1;exitX=0.375;exitY=1;exitDx=0;exitDy=0;exitPerimeter=0;entryX=0.65;entryY=1.038;entryDx=0;entryDy=0;entryPerimeter=0;curved=1;" parent="1" source="rhCW5o9TBGKpallqe4Qa-28" target="rhCW5o9TBGKpallqe4Qa-27" edge="1">
          <mxGeometry width="50" height="50" relative="1" as="geometry">
            <mxPoint x="390" y="297" as="sourcePoint" />
            <mxPoint x="440" y="247" as="targetPoint" />
            <Array as="points">
              <mxPoint x="420" y="357" />
            </Array>
          </mxGeometry>
        </mxCell>
        <mxCell id="rhCW5o9TBGKpallqe4Qa-31" value="" style="endArrow=classic;html=1;curved=1;exitX=0;exitY=1;exitDx=0;exitDy=0;" parent="1" source="rhCW5o9TBGKpallqe4Qa-27" edge="1">
          <mxGeometry width="50" height="50" relative="1" as="geometry">
            <mxPoint x="250" y="297" as="sourcePoint" />
            <mxPoint x="248.96" y="240" as="targetPoint" />
            <Array as="points">
              <mxPoint x="158.96" y="270" />
            </Array>
          </mxGeometry>
        </mxCell>
        <mxCell id="rhCW5o9TBGKpallqe4Qa-32" value="" style="endArrow=classic;html=1;exitX=1;exitY=0;exitDx=0;exitDy=0;entryX=0.963;entryY=0.75;entryDx=0;entryDy=0;entryPerimeter=0;curved=1;" parent="1" source="rhCW5o9TBGKpallqe4Qa-28" target="rhCW5o9TBGKpallqe4Qa-28" edge="1">
          <mxGeometry width="50" height="50" relative="1" as="geometry">
            <mxPoint x="610" y="250" as="sourcePoint" />
            <mxPoint x="650" y="260" as="targetPoint" />
            <Array as="points">
              <mxPoint x="700" y="230" />
            </Array>
          </mxGeometry>
        </mxCell>
        <mxCell id="rhCW5o9TBGKpallqe4Qa-33" value="Wait for 0 from Below" style="text;html=1;strokeColor=none;fillColor=none;align=center;verticalAlign=middle;whiteSpace=wrap;rounded=0;" parent="1" vertex="1">
          <mxGeometry x="260" y="242" width="60" height="30" as="geometry" />
        </mxCell>
        <mxCell id="rhCW5o9TBGKpallqe4Qa-34" value="Wait for 1 from Below" style="text;html=1;strokeColor=none;fillColor=none;align=center;verticalAlign=middle;whiteSpace=wrap;rounded=0;" parent="1" vertex="1">
          <mxGeometry x="510" y="242" width="60" height="30" as="geometry" />
        </mxCell>
        <mxCell id="rhCW5o9TBGKpallqe4Qa-35" value="" style="endArrow=classic;html=1;rounded=0;dashed=1;" parent="1" edge="1">
          <mxGeometry width="50" height="50" relative="1" as="geometry">
            <mxPoint x="220" y="177" as="sourcePoint" />
            <mxPoint x="270" y="217" as="targetPoint" />
          </mxGeometry>
        </mxCell>
        <mxCell id="Znt2Lg_zwu5WjQbYOpJ7-1" value="rdt_rcv(self, rcv_pkt) &amp;amp;&amp;nbsp;&amp;nbsp;is_corrupted(packet) &amp;amp;&amp;nbsp;is_expected_seq(rcv_pkt, exp_seq)" style="rounded=0;whiteSpace=wrap;html=1;" vertex="1" parent="1">
          <mxGeometry x="210" width="440" height="60" as="geometry" />
        </mxCell>
        <mxCell id="Znt2Lg_zwu5WjQbYOpJ7-4" value="reply_pkt = RDTReceiver.make_reply_pkt(&#39;1&#39;,ord(&#39;1&#39;))" style="rounded=0;whiteSpace=wrap;html=1;" vertex="1" parent="1">
          <mxGeometry x="290" y="100" width="280" height="60" as="geometry" />
        </mxCell>
        <mxCell id="Znt2Lg_zwu5WjQbYOpJ7-6" value="" style="endArrow=none;html=1;rounded=0;" edge="1" parent="1">
          <mxGeometry width="50" height="50" relative="1" as="geometry">
            <mxPoint x="232.96" y="80" as="sourcePoint" />
            <mxPoint x="612.96" y="80" as="targetPoint" />
            <Array as="points">
              <mxPoint x="537.96" y="80" />
            </Array>
          </mxGeometry>
        </mxCell>
        <mxCell id="Znt2Lg_zwu5WjQbYOpJ7-7" value="rdt_rcv(self, rcv_pkt) &amp;amp;&amp;amp; is_corrupted(packet) || is_expected_seq(rcv_pkt, exp_seq)" style="rounded=0;whiteSpace=wrap;html=1;" vertex="1" parent="1">
          <mxGeometry x="680" y="140" width="300" height="60" as="geometry" />
        </mxCell>
        <mxCell id="Znt2Lg_zwu5WjQbYOpJ7-8" value="" style="endArrow=none;html=1;rounded=0;" edge="1" parent="1">
          <mxGeometry width="50" height="50" relative="1" as="geometry">
            <mxPoint x="660" y="210" as="sourcePoint" />
            <mxPoint x="1000" y="210" as="targetPoint" />
            <Array as="points">
              <mxPoint x="925" y="210" />
            </Array>
          </mxGeometry>
        </mxCell>
        <mxCell id="Znt2Lg_zwu5WjQbYOpJ7-9" value="reply_pkt = RDTReceiver.make_reply_pkt(&#39;1&#39;,ord(&#39;1&#39;))&lt;br&gt;udt_send(self, frame)" style="rounded=0;whiteSpace=wrap;html=1;" vertex="1" parent="1">
          <mxGeometry x="660" y="225.5" width="400" height="63" as="geometry" />
        </mxCell>
        <mxCell id="Znt2Lg_zwu5WjQbYOpJ7-10" value="rdt_rcv(self, rcv_pkt) &amp;amp;&amp;amp;&amp;nbsp; is_corrupted(packet) &amp;amp;&amp;amp; is_expected_seq(rcv_pkt, exp_seq)" style="rounded=0;whiteSpace=wrap;html=1;" vertex="1" parent="1">
          <mxGeometry x="275" y="350" width="310" height="60" as="geometry" />
        </mxCell>
        <mxCell id="Znt2Lg_zwu5WjQbYOpJ7-11" value="" style="endArrow=none;html=1;rounded=0;" edge="1" parent="1">
          <mxGeometry width="50" height="50" relative="1" as="geometry">
            <mxPoint x="250" y="430" as="sourcePoint" />
            <mxPoint x="630" y="430" as="targetPoint" />
            <Array as="points">
              <mxPoint x="555" y="430" />
            </Array>
          </mxGeometry>
        </mxCell>
        <mxCell id="Znt2Lg_zwu5WjQbYOpJ7-12" value="rdt_rcv(self, rcv_pkt) &amp;amp;&amp;amp; is_corrupted(packet) || is_expected_seq(rcv_pkt, exp_seq)" style="rounded=0;whiteSpace=wrap;html=1;" vertex="1" parent="1">
          <mxGeometry x="-140" y="130" width="320" height="90" as="geometry" />
        </mxCell>
        <mxCell id="Znt2Lg_zwu5WjQbYOpJ7-13" value="" style="endArrow=none;html=1;rounded=0;" edge="1" parent="1">
          <mxGeometry width="50" height="50" relative="1" as="geometry">
            <mxPoint x="-180" y="230" as="sourcePoint" />
            <mxPoint x="200" y="230" as="targetPoint" />
            <Array as="points">
              <mxPoint x="125" y="230" />
            </Array>
          </mxGeometry>
        </mxCell>
        <mxCell id="Znt2Lg_zwu5WjQbYOpJ7-14" value="reply_pkt = RDTReceiver.make_reply_pkt(&#39;0&#39;,ord(&#39;0&#39;))&lt;br&gt;udt_send(self, frame)" style="rounded=0;whiteSpace=wrap;html=1;" vertex="1" parent="1">
          <mxGeometry x="-180" y="250" width="370" height="50" as="geometry" />
        </mxCell>
        <mxCell id="Znt2Lg_zwu5WjQbYOpJ7-15" value="reply_pkt = RDTReceiver.make_reply_pkt(&#39;0&#39;,ord(&#39;0&#39;))" style="rounded=0;whiteSpace=wrap;html=1;" vertex="1" parent="1">
          <mxGeometry x="300" y="450" width="260" height="60" as="geometry" />
        </mxCell>
      </root>
    </mxGraphModel>
  </diagram>
</mxfile>
